<svg width="15" height="16" viewBox="0 0 15 16" fill="none" xmlns="http://www.w3.org/2000/svg">
<g opacity="0.6">
<path d="M1 3.66675H2.44444H14" fill="#FF0D0D"/>
<path d="M1 3.66675H2.44444H14" stroke="#F88C8C" stroke-width="2" stroke-linecap="round" stroke-linejoin="round"/>
</g>
<path fill-rule="evenodd" clip-rule="evenodd" d="M5.71236 2.12533C5.7907 2.05301 5.9129 2 6.05545 2H8.94434C9.08688 2 9.20908 2.05301 9.28742 2.12533C9.36307 2.19516 9.38878 2.27195 9.38878 2.33337V2.66674H11.3888V2.33337C11.3888 1.68753 11.1101 1.08602 10.644 0.655743C10.1806 0.227948 9.56797 0 8.94434 0H6.05545C5.43181 0 4.81921 0.227948 4.35578 0.655743C3.88966 1.08602 3.611 1.68753 3.611 2.33337V2.66674H5.611V2.33337C5.611 2.27195 5.63671 2.19516 5.71236 2.12533ZM1.44434 4.66674V13.0004C1.44434 13.6462 1.72299 14.2477 2.18911 14.678C2.65254 15.1058 3.26515 15.3337 3.88878 15.3337H11.111C11.7346 15.3337 12.3472 15.1058 12.8107 14.678C13.2768 14.2477 13.5554 13.6462 13.5554 13.0004V4.66674H2.44432H1.44434ZM4.611 4.66675H10.3888H11.5554V13.0004C11.5554 13.0618 11.5297 13.1386 11.4541 13.2084C11.3757 13.2807 11.2535 13.3337 11.111 13.3337H3.88878C3.74623 13.3337 3.62404 13.2807 3.5457 13.2084C3.47004 13.1386 3.44434 13.0618 3.44434 13.0004V4.66675H4.611Z" fill="#FF0D0D"/>
</svg>
