<svg width="15" height="17" viewBox="0 0 15 17" fill="none" xmlns="http://www.w3.org/2000/svg">
<path opacity="0.6" d="M6.81473 2.58142H2.29216C1.94946 2.58142 1.62079 2.7385 1.37847 3.01811C1.13614 3.29772 1 3.67695 1 4.07238V14.5091C1 14.9045 1.13614 15.2837 1.37847 15.5633C1.62079 15.8429 1.94946 16 2.29216 16H11.3373C11.68 16 12.0087 15.8429 12.251 15.5633C12.4933 15.2837 12.6295 14.9045 12.6295 14.5091V9.29073" stroke="#5061FC" stroke-width="2" stroke-linecap="round" stroke-linejoin="round"/>
<path d="M11.6603 1.46318C11.9173 1.16661 12.2659 1 12.6294 1C12.9929 1 13.3415 1.16661 13.5986 1.46318C13.8556 1.75975 14 2.16199 14 2.5814C14 3.00081 13.8556 3.40305 13.5986 3.69962L7.46079 10.7817L4.87646 11.5271L5.52255 8.54523L11.6603 1.46318Z" stroke="#5061FC" stroke-width="2" stroke-linecap="round" stroke-linejoin="round"/>
</svg>
